<mxfile host="65bd71144e">
    <diagram id="OeCe3KiwX5dtoY-UmS-2" name="Page-1">
        <mxGraphModel dx="1887" dy="478" grid="1" gridSize="10" guides="1" tooltips="1" connect="1" arrows="1" fold="1" page="1" pageScale="1" pageWidth="827" pageHeight="1169" math="0" shadow="0">
            <root>
                <mxCell id="0"/>
                <mxCell id="1" parent="0"/>
                <mxCell id="2" value="Streaming" style="swimlane;fontStyle=1;align=center;verticalAlign=top;childLayout=stackLayout;horizontal=1;startSize=26;horizontalStack=0;resizeParent=1;resizeParentMax=0;resizeLast=0;collapsible=1;marginBottom=0;" parent="1" vertex="1">
                    <mxGeometry x="350" y="10" width="400" height="310" as="geometry"/>
                </mxCell>
                <mxCell id="3" value="- Catálogo: Catálogo&#10;- nombre_plataforma: string&#10;- nombre_usuario: string&#10;- correo: string&#10;- contrasena: string " style="text;strokeColor=none;fillColor=none;align=left;verticalAlign=top;spacingLeft=4;spacingRight=4;overflow=hidden;rotatable=0;points=[[0,0.5],[1,0.5]];portConstraint=eastwest;" parent="2" vertex="1">
                    <mxGeometry y="26" width="400" height="94" as="geometry"/>
                </mxCell>
                <mxCell id="4" value="" style="line;strokeWidth=1;fillColor=none;align=left;verticalAlign=middle;spacingTop=-1;spacingLeft=3;spacingRight=3;rotatable=0;labelPosition=right;points=[];portConstraint=eastwest;" parent="2" vertex="1">
                    <mxGeometry y="120" width="400" height="8" as="geometry"/>
                </mxCell>
                <mxCell id="5" value="+ Streaming( )&#10;+ Streaming (nombre_plataforma, nombre_usuario_correo, contrasena)&#10;&#10;+getNombPlat(): string&#10;+getNombUsua ():string&#10;+getCorreo ():string&#10;+getContra ():string&#10;+setNombPlat( string plataforma):void&#10;+setNombUsua (string usuario):void&#10;+setCorreo (string correo):void&#10;+setContra (string contras):void" style="text;strokeColor=none;fillColor=none;align=left;verticalAlign=top;spacingLeft=4;spacingRight=4;overflow=hidden;rotatable=0;points=[[0,0.5],[1,0.5]];portConstraint=eastwest;" parent="2" vertex="1">
                    <mxGeometry y="128" width="400" height="182" as="geometry"/>
                </mxCell>
                <mxCell id="9" value="Episodio" style="swimlane;fontStyle=1;align=center;verticalAlign=top;childLayout=stackLayout;horizontal=1;startSize=26;horizontalStack=0;resizeParent=1;resizeParentMax=0;resizeLast=0;collapsible=1;marginBottom=0;" parent="1" vertex="1">
                    <mxGeometry x="-10" y="880" width="520" height="160" as="geometry"/>
                </mxCell>
                <mxCell id="10" value="- temporada: int&#10;-  numEp : int&#10;" style="text;strokeColor=none;fillColor=none;align=left;verticalAlign=top;spacingLeft=4;spacingRight=4;overflow=hidden;rotatable=0;points=[[0,0.5],[1,0.5]];portConstraint=eastwest;" parent="9" vertex="1">
                    <mxGeometry y="26" width="520" height="44" as="geometry"/>
                </mxCell>
                <mxCell id="11" value="" style="line;strokeWidth=1;fillColor=none;align=left;verticalAlign=middle;spacingTop=-1;spacingLeft=3;spacingRight=3;rotatable=0;labelPosition=right;points=[];portConstraint=eastwest;" parent="9" vertex="1">
                    <mxGeometry y="70" width="520" height="8" as="geometry"/>
                </mxCell>
                <mxCell id="12" value="+ Episodio ( )&#10;+ Episodio (calificacion_ep, fechaEst_ep, nombre_ep, temporada_ep, numEpe_ep, id_ep)&#10;+ getTemp(): int&#10;+ getNoEp(): int&#10;+ display(): void&#10;" style="text;strokeColor=none;fillColor=none;align=left;verticalAlign=top;spacingLeft=4;spacingRight=4;overflow=hidden;rotatable=0;points=[[0,0.5],[1,0.5]];portConstraint=eastwest;" parent="9" vertex="1">
                    <mxGeometry y="78" width="520" height="82" as="geometry"/>
                </mxCell>
                <mxCell id="13" value="Pelicula" style="swimlane;fontStyle=1;align=center;verticalAlign=top;childLayout=stackLayout;horizontal=1;startSize=26;horizontalStack=0;resizeParent=1;resizeParentMax=0;resizeLast=0;collapsible=1;marginBottom=0;" parent="1" vertex="1">
                    <mxGeometry x="890" y="860" width="430" height="170" as="geometry"/>
                </mxCell>
                <mxCell id="14" value="- duracion: int &#10;- genero: string&#10;" style="text;strokeColor=none;fillColor=none;align=left;verticalAlign=top;spacingLeft=4;spacingRight=4;overflow=hidden;rotatable=0;points=[[0,0.5],[1,0.5]];portConstraint=eastwest;" parent="13" vertex="1">
                    <mxGeometry y="26" width="430" height="44" as="geometry"/>
                </mxCell>
                <mxCell id="15" value="" style="line;strokeWidth=1;fillColor=none;align=left;verticalAlign=middle;spacingTop=-1;spacingLeft=3;spacingRight=3;rotatable=0;labelPosition=right;points=[];portConstraint=eastwest;" parent="13" vertex="1">
                    <mxGeometry y="70" width="430" height="8" as="geometry"/>
                </mxCell>
                <mxCell id="16" value="+ Pelicula ( )&#10;+ Pelicula (id, nombre_pelicula. duracion, genero, calificacion, fecha_estreno)&#10;+ getDuracion(): int&#10;+ getGenero():string&#10;+ apregarPeli(peli)&#10;+ display(): void" style="text;strokeColor=none;fillColor=none;align=left;verticalAlign=top;spacingLeft=4;spacingRight=4;overflow=hidden;rotatable=0;points=[[0,0.5],[1,0.5]];portConstraint=eastwest;" parent="13" vertex="1">
                    <mxGeometry y="78" width="430" height="92" as="geometry"/>
                </mxCell>
                <mxCell id="17" value="" style="endArrow=diamondThin;endFill=0;endSize=24;html=1;exitX=0.5;exitY=0;exitDx=0;exitDy=0;entryX=0.55;entryY=1.009;entryDx=0;entryDy=0;entryPerimeter=0;" parent="1" source="9" target="27" edge="1">
                    <mxGeometry width="160" relative="1" as="geometry">
                        <mxPoint x="470" y="830" as="sourcePoint"/>
                        <mxPoint x="240.18000000000006" y="1120" as="targetPoint"/>
                        <Array as="points"/>
                    </mxGeometry>
                </mxCell>
                <mxCell id="18" value="" style="endArrow=diamondThin;endFill=0;endSize=24;html=1;exitX=0.5;exitY=0;exitDx=0;exitDy=0;entryX=0;entryY=0.5;entryDx=0;entryDy=0;" parent="1" source="24" edge="1">
                    <mxGeometry width="160" relative="1" as="geometry">
                        <mxPoint x="255" y="820" as="sourcePoint"/>
                        <mxPoint x="470" y="453" as="targetPoint"/>
                        <Array as="points">
                            <mxPoint x="240" y="468"/>
                        </Array>
                    </mxGeometry>
                </mxCell>
                <mxCell id="19" value="" style="endArrow=diamondThin;endFill=0;endSize=24;html=1;entryX=1.01;entryY=0.35;entryDx=0;entryDy=0;exitX=0.5;exitY=0;exitDx=0;exitDy=0;entryPerimeter=0;" parent="1" source="13" target="32" edge="1">
                    <mxGeometry width="160" relative="1" as="geometry">
                        <mxPoint x="300" y="810" as="sourcePoint"/>
                        <mxPoint x="710" y="453" as="targetPoint"/>
                        <Array as="points">
                            <mxPoint x="1100" y="470"/>
                        </Array>
                    </mxGeometry>
                </mxCell>
                <mxCell id="20" value="Video" style="swimlane;fontStyle=0;childLayout=stackLayout;horizontal=1;startSize=26;fillColor=none;horizontalStack=0;resizeParent=1;resizeParentMax=0;resizeLast=0;collapsible=1;marginBottom=0;strokeColor=default;" parent="1" vertex="1">
                    <mxGeometry x="490" y="560" width="440" height="240" as="geometry"/>
                </mxCell>
                <mxCell id="21" value="+ id:string&#10;+ nombre:string&#10;+ fecha_estreno() string&#10;+ calificacion: double&#10;+duracion:int" style="text;strokeColor=none;fillColor=none;align=left;verticalAlign=top;spacingLeft=4;spacingRight=4;overflow=hidden;rotatable=0;points=[[0,0.5],[1,0.5]];portConstraint=eastwest;" parent="20" vertex="1">
                    <mxGeometry y="26" width="440" height="84" as="geometry"/>
                </mxCell>
                <mxCell id="22" value="+ Video()&#10;+ Video(string idN, string nombreN, string fecha_estrenoN, double calificacionN)&#10;+ getId():string&#10;+ getNombre():string&#10;+ getFechaE(): string&#10;+ getCalificacion(): double&#10;+getDuracion(): int&#10;+ display(): void" style="text;strokeColor=default;fillColor=none;align=left;verticalAlign=top;spacingLeft=4;spacingRight=4;overflow=hidden;rotatable=0;points=[[0,0.5],[1,0.5]];portConstraint=eastwest;" parent="20" vertex="1">
                    <mxGeometry y="110" width="440" height="130" as="geometry"/>
                </mxCell>
                <mxCell id="23" value="" style="endArrow=diamondThin;endFill=0;endSize=24;html=1;entryX=0.468;entryY=1.013;entryDx=0;entryDy=0;entryPerimeter=0;exitX=0.429;exitY=-0.013;exitDx=0;exitDy=0;exitPerimeter=0;" parent="1" target="5" edge="1">
                    <mxGeometry width="160" relative="1" as="geometry">
                        <mxPoint x="572.96" y="398.856" as="sourcePoint"/>
                        <mxPoint x="510" y="478.0000000000002" as="targetPoint"/>
                        <Array as="points">
                            <mxPoint x="539" y="360"/>
                        </Array>
                    </mxGeometry>
                </mxCell>
                <mxCell id="24" value="Serie" style="swimlane;fontStyle=1;align=center;verticalAlign=top;childLayout=stackLayout;horizontal=1;startSize=26;horizontalStack=0;resizeParent=1;resizeParentMax=0;resizeLast=0;collapsible=1;marginBottom=0;" parent="1" vertex="1">
                    <mxGeometry x="45" y="530" width="390" height="250" as="geometry"/>
                </mxCell>
                <mxCell id="25" value="-episodio: vector &lt;Episodio&gt;&#10;-id_serie: string&#10;-nombre_serie: string&#10;-genero_serie: string" style="text;strokeColor=none;fillColor=none;align=left;verticalAlign=top;spacingLeft=4;spacingRight=4;overflow=hidden;rotatable=0;points=[[0,0.5],[1,0.5]];portConstraint=eastwest;" parent="24" vertex="1">
                    <mxGeometry y="26" width="390" height="94" as="geometry"/>
                </mxCell>
                <mxCell id="26" value="" style="line;strokeWidth=1;fillColor=none;align=left;verticalAlign=middle;spacingTop=-1;spacingLeft=3;spacingRight=3;rotatable=0;labelPosition=right;points=[];portConstraint=eastwest;" parent="24" vertex="1">
                    <mxGeometry y="120" width="390" height="8" as="geometry"/>
                </mxCell>
                <mxCell id="27" value="+ Serie()&#10;+ Serie(id_serie:str, nombre_serie:str, temporada:int, no_episodio: int)&#10;+ getId_serie():string&#10;+ getNombre_serie():string&#10;+ getGenero_serie():string&#10;+ agregarSerie(seri)&#10;+ display(): void&#10;" style="text;strokeColor=none;fillColor=none;align=left;verticalAlign=top;spacingLeft=4;spacingRight=4;overflow=hidden;rotatable=0;points=[[0,0.5],[1,0.5]];portConstraint=eastwest;" parent="24" vertex="1">
                    <mxGeometry y="128" width="390" height="122" as="geometry"/>
                </mxCell>
                <mxCell id="28" value="" style="endArrow=block;endSize=16;endFill=0;html=1;entryX=1.011;entryY=-0.025;entryDx=0;entryDy=0;entryPerimeter=0;exitX=0.25;exitY=0;exitDx=0;exitDy=0;" parent="1" source="13" target="22" edge="1">
                    <mxGeometry width="160" relative="1" as="geometry">
                        <mxPoint x="760" y="810" as="sourcePoint"/>
                        <mxPoint x="1010" y="720" as="targetPoint"/>
                        <Array as="points">
                            <mxPoint x="998" y="698"/>
                        </Array>
                    </mxGeometry>
                </mxCell>
                <mxCell id="29" value="" style="endArrow=block;endSize=16;endFill=0;html=1;entryX=0.291;entryY=1.049;entryDx=0;entryDy=0;entryPerimeter=0;exitX=0.903;exitY=-0.019;exitDx=0;exitDy=0;exitPerimeter=0;" parent="1" source="9" target="22" edge="1">
                    <mxGeometry width="160" relative="1" as="geometry">
                        <mxPoint x="500" y="990" as="sourcePoint"/>
                        <mxPoint x="692.31" y="697.75" as="targetPoint"/>
                        <Array as="points">
                            <mxPoint x="598" y="867"/>
                        </Array>
                    </mxGeometry>
                </mxCell>
                <mxCell id="32" value="&lt;p style=&quot;margin: 0px ; margin-top: 4px ; text-align: center&quot;&gt;&lt;b&gt;Class&lt;/b&gt;&lt;/p&gt;&lt;hr size=&quot;1&quot;&gt;&lt;p style=&quot;margin: 0px ; margin-left: 4px&quot;&gt;- lista_peliculas: vector &amp;lt;Pelicula&amp;gt;&lt;/p&gt;&lt;p style=&quot;margin: 0px ; margin-left: 4px&quot;&gt;- lista_series: vectore &amp;lt;Serie&amp;gt;&lt;/p&gt;&lt;hr size=&quot;1&quot;&gt;&lt;p style=&quot;margin: 0px ; margin-left: 4px&quot;&gt;+ agregarSeries(Series s):void&lt;/p&gt;&lt;p style=&quot;margin: 0px ; margin-left: 4px&quot;&gt;+ agregarPelicula(Pelicula p):void&lt;/p&gt;&lt;p style=&quot;margin: 0px ; margin-left: 4px&quot;&gt;+ display():void&lt;/p&gt;" style="verticalAlign=top;align=left;overflow=fill;fontSize=12;fontFamily=Helvetica;html=1;" vertex="1" parent="1">
                    <mxGeometry x="470" y="410" width="210" height="120" as="geometry"/>
                </mxCell>
            </root>
        </mxGraphModel>
    </diagram>
</mxfile>